<svg width="24" height="24" viewBox="0 0 24 24" fill="none" xmlns="http://www.w3.org/2000/svg">
<path d="M8.76998 14.4299L10.38 15.1499C10.8915 15.3774 11.4451 15.4949 12.005 15.4949C12.5648 15.4949 13.1184 15.3774 13.63 15.1499L15.24 14.4299C16.68 13.7899 18.01 15.5299 17.01 16.7499L13.55 20.9799C12.7 22.0199 11.31 22.0199 10.45 20.9799L6.99998 16.7499C5.98998 15.5299 7.31998 13.7899 8.76998 14.4299ZM8.56998 11.6719C8.26998 11.8919 8.30998 12.3519 8.64998 12.5219L11 13.6919C11.55 13.9719 12.44 13.9719 12.98 13.6919L15.33 12.5219C15.66 12.3519 15.7 11.9019 15.41 11.6719L12.3 9.33194C12.2128 9.26853 12.1078 9.23437 12 9.23437C11.8922 9.23437 11.7872 9.26853 11.7 9.33194L8.56998 11.6719ZM17.88 8.24094L13.71 3.04094C13.63 2.94094 13.54 2.85094 13.45 2.76094C13.19 2.51094 12.82 2.74094 12.82 3.10094V7.40094C12.82 7.56094 12.89 7.71094 13.02 7.80094L17.17 10.9209L17.35 11.0509C17.53 11.1809 17.78 11.1809 17.93 11.0209C18.63 10.2609 18.62 9.16094 17.88 8.24094V8.24094ZM6.10998 8.32994L10.26 3.04994C10.34 2.94994 10.42 2.85994 10.51 2.76994C10.77 2.51994 11.14 2.73994 11.14 3.10994V7.47994C11.14 7.63994 11.07 7.77994 10.94 7.87994L6.80998 11.0499L6.63998 11.1799C6.45998 11.3099 6.20998 11.3099 6.04998 11.1399C5.36998 10.3699 5.37998 9.26994 6.10998 8.32994V8.32994Z" fill="black"/>
</svg>
