<svg width="14" height="14" viewBox="0 0 14 14" fill="none" xmlns="http://www.w3.org/2000/svg">
<g clip-path="url(#clip0_12_546)">
<path d="M7 0C3.13483 0 0 3.13483 0 7C0 10.8652 3.13483 14 7 14C10.8652 14 14 10.8652 14 7C14 3.13483 10.8669 0 7 0ZM3.45333 7.23508L3.48308 7.18783L5.30483 4.33883C5.31093 4.32947 5.31944 4.32191 5.32946 4.31696C5.33948 4.312 5.35064 4.30983 5.36179 4.31066C5.37294 4.3115 5.38365 4.31531 5.39282 4.3217C5.40199 4.32809 5.40928 4.33683 5.41392 4.347C5.71725 5.02892 5.98092 5.87708 5.85725 6.405C5.80592 6.622 5.66183 6.916 5.49908 7.18783C5.4782 7.2276 5.45543 7.26634 5.43083 7.30392C5.42494 7.3123 5.41706 7.31909 5.4079 7.32367C5.39873 7.32825 5.38857 7.33048 5.37833 7.33017H3.50758C3.49642 7.33034 3.48541 7.32748 3.47574 7.32191C3.46606 7.31633 3.45808 7.30823 3.45264 7.29848C3.44719 7.28873 3.44449 7.27769 3.44482 7.26653C3.44515 7.25536 3.44849 7.2445 3.4545 7.23508H3.45333ZM11.5698 8.21508C11.57 8.22754 11.5665 8.23976 11.5597 8.25024C11.553 8.26071 11.5433 8.26897 11.5319 8.274C11.3902 8.33408 10.9077 8.55692 10.7071 8.83517C10.1949 9.548 9.80408 10.5677 8.92908 10.5677H5.28092C4.9729 10.5672 4.66798 10.5061 4.38361 10.3877C4.09923 10.2694 3.84097 10.0961 3.62357 9.87791C3.40617 9.6597 3.23391 9.40079 3.11662 9.11597C2.99932 8.83116 2.93931 8.52602 2.94 8.218V8.176C2.94 8.14217 2.968 8.11417 3.003 8.11417H5.03592C5.07675 8.11417 5.10592 8.15092 5.103 8.19117C5.08783 8.323 5.11292 8.45892 5.17592 8.582C5.29608 8.827 5.54692 8.97983 5.817 8.97983H6.82383V8.19408H5.8275C5.81582 8.19396 5.8044 8.19065 5.79447 8.18452C5.78454 8.17838 5.77646 8.16966 5.77112 8.15927C5.76578 8.14889 5.76337 8.13725 5.76416 8.1256C5.76495 8.11395 5.7689 8.10274 5.77558 8.09317L5.81233 8.04067C5.90567 7.90592 6.04042 7.69883 6.17458 7.462C6.26558 7.30217 6.35425 7.13183 6.42542 6.96033C6.43942 6.93 6.4505 6.89792 6.46333 6.867C6.48258 6.81217 6.50242 6.76083 6.51642 6.71008C6.53016 6.66705 6.5428 6.62367 6.55433 6.58C6.58758 6.43417 6.60158 6.28017 6.60158 6.12092C6.60158 6.05792 6.59925 5.992 6.59342 5.93017C6.5905 5.86192 6.58175 5.79308 6.57358 5.72483C6.56706 5.66377 6.55772 5.60304 6.54558 5.54283C6.52989 5.45116 6.51082 5.3601 6.48842 5.26983L6.48025 5.23483C6.46275 5.17183 6.44758 5.11233 6.42775 5.04992C6.3722 4.85824 6.30837 4.66906 6.23642 4.48292C6.21135 4.4129 6.18372 4.34382 6.15358 4.27583C6.11158 4.172 6.06842 4.07808 6.02933 3.99C6.00989 3.95226 5.9916 3.91394 5.9745 3.87508C5.95553 3.83316 5.93549 3.79173 5.91442 3.75083C5.90042 3.71992 5.8835 3.69017 5.87242 3.66217L5.74933 3.43583C5.73242 3.40492 5.76042 3.367 5.79425 3.37692L6.56425 3.58517H6.57008L6.671 3.61433L6.783 3.64583L6.82383 3.65692V3.20017C6.82383 2.97908 7 2.8 7.21992 2.8C7.27185 2.79986 7.32327 2.81023 7.37108 2.83048C7.4189 2.85073 7.46213 2.88044 7.49817 2.91783C7.57265 2.99296 7.61456 3.09438 7.61483 3.20017V3.87917L7.69708 3.90192C7.70292 3.90483 7.70992 3.90775 7.71517 3.91183C7.735 3.92583 7.76417 3.948 7.80092 3.976C7.83008 3.99817 7.861 4.02617 7.89717 4.05592C8.01236 4.14976 8.12404 4.24783 8.232 4.34992C8.35683 4.466 8.49683 4.60192 8.631 4.753C8.66892 4.79617 8.70508 4.83817 8.743 4.88483C8.77917 4.93092 8.82 4.97583 8.85383 5.02017C8.89992 5.08083 8.94717 5.14383 8.99092 5.20917C9.01017 5.24008 9.03408 5.27217 9.05217 5.30308C9.10817 5.38592 9.156 5.47108 9.20208 5.55683C9.22192 5.59592 9.24117 5.63908 9.25808 5.68108C9.31 5.796 9.35083 5.91208 9.37592 6.02992C9.38422 6.05493 9.38988 6.08073 9.39283 6.10692V6.11275C9.401 6.146 9.40392 6.18275 9.40683 6.22008C9.42326 6.3925 9.40216 6.56643 9.345 6.72992C9.32692 6.77892 9.31 6.82908 9.28783 6.87808C9.24408 6.97725 9.19392 7.07817 9.13383 7.17092C9.114 7.20592 9.09008 7.24208 9.06792 7.27708C9.04283 7.31383 9.016 7.34883 8.99383 7.38208C8.96176 7.42626 8.92809 7.46926 8.89292 7.511C8.862 7.553 8.83108 7.595 8.79608 7.63292C8.74883 7.69008 8.70275 7.74375 8.65317 7.79508C8.62517 7.82892 8.59483 7.86392 8.56217 7.89425C8.53183 7.92925 8.49917 7.96017 8.47117 7.98817C8.42217 8.03717 8.38367 8.07392 8.34983 8.106L8.26992 8.17717C8.25879 8.18833 8.24368 8.19463 8.22792 8.19467H7.61483V8.97983H8.386C8.55808 8.97983 8.722 8.91917 8.855 8.806C8.89992 8.76692 9.09708 8.596 9.331 8.33817C9.33862 8.32939 9.34883 8.32326 9.36017 8.32067L11.4893 7.70408C11.4987 7.70138 11.5085 7.70088 11.5181 7.70262C11.5277 7.70436 11.5367 7.70829 11.5445 7.71412C11.5523 7.71994 11.5587 7.72748 11.5631 7.73617C11.5674 7.74485 11.5698 7.75444 11.5698 7.76417V8.21508Z" fill="#699BF7"/>
</g>
<defs>
<clipPath id="clip0_12_546">
<rect width="14" height="14" fill="white"/>
</clipPath>
</defs>
</svg>
