<svg width="1000" height="1163" viewBox="0 0 1000 1163" fill="none" xmlns="http://www.w3.org/2000/svg">
<path fill-rule="evenodd" clip-rule="evenodd" d="M488.055 0.651824C479.59 2.16382 465.864 7.77482 458.319 12.8068C449.697 18.5568 43.0922 418.661 38.1882 426.221C28.8932 440.548 25.7652 450.463 25.1202 467.651C24.5022 484.084 26.3742 493.141 33.2742 507.101C43.4852 527.759 61.8472 542.96 83.5672 548.734C93.7802 551.449 89.7282 551.373 315.988 553.13C484.972 554.443 505.535 554.437 513.379 553.069C534.623 549.364 553.486 537.061 565.243 519.243C571.774 509.343 574.369 503.567 576.983 493.101C578.907 485.398 579.033 479.193 580.371 326.101C581.136 238.651 581.782 144.785 581.808 117.511C581.851 70.9208 581.732 67.4418 579.831 60.0108C575.906 44.6608 568.397 31.9768 557.042 21.5098C546.536 11.8268 535.871 6.02382 521.293 2.05882C514.182 0.124824 495.446 -0.668177 488.055 0.651824ZM635.519 344.822C635.154 375.776 634.844 420.001 634.83 443.101C634.797 497.351 633.819 516.125 630.405 528.101C624.884 547.463 612.074 568.199 598.228 580.186C577.576 598.065 557.261 605.927 527.354 607.615C518.554 608.111 510.229 608.803 508.854 609.152C488.146 614.415 473.143 623.883 461.826 638.834C450.265 654.107 445.976 666.862 445.258 688.101C444.998 695.801 444.118 788.958 443.301 895.116C441.976 1067.49 441.98 1089.06 443.333 1096.82C447.811 1122.5 463.582 1142.92 487.941 1154.58C514.541 1167.32 546.435 1164.26 569.725 1146.73C572.678 1144.51 627.754 1090.81 692.115 1027.4C756.476 963.984 847.551 874.283 894.504 828.062C941.456 781.841 981.736 741.566 984.015 738.562C989.304 731.589 995.335 718.832 997.522 709.993C999.913 700.326 999.939 679.357 997.57 670.601C995.437 662.714 989.314 649.8 984.665 643.38C981.604 639.153 896.39 552.139 702.354 355.105C666.604 318.803 637.09 288.976 636.768 288.822C636.446 288.669 635.884 313.869 635.519 344.822ZM65.1892 612.618C56.5862 614.188 43.7552 619.376 36.4262 624.248C26.4942 630.851 20.5152 636.803 13.9342 646.642C-5.51482 675.718 -4.52382 713.269 16.4042 740.22C18.7002 743.176 74.7532 800.569 140.966 867.758C207.179 934.947 284.285 1013.23 312.311 1041.72C340.338 1070.21 363.371 1093.42 363.496 1093.29C363.621 1093.17 364.44 1003.07 365.317 893.083C366.29 771.027 367.313 690.042 367.944 685.251C371.038 661.737 382.294 638.625 399.102 621.275C402.816 617.441 405.854 614.219 405.854 614.115C405.854 613.937 312.312 613.236 141.854 612.136C99.2222 611.861 68.2692 612.056 65.1892 612.618Z" fill="#5A5FE0"/>
</svg>
