<svg width="2500" height="2500" viewBox="0 0 2500 2500" fill="none" xmlns="http://www.w3.org/2000/svg">
<g clip-path="url(#clip0_1017_426)">
<path d="M1250 2500C1940.36 2500 2500 1940.36 2500 1250C2500 559.644 1940.36 0 1250 0C559.644 0 0 559.644 0 1250C0 1940.36 559.644 2500 1250 2500Z" fill="black"/>
<g clip-path="url(#clip1_1017_426)">
<path d="M626.421 1630.9C637.751 1619.53 653.133 1613.13 669.182 1613.11H2144.72C2150.7 1613.1 2156.55 1614.86 2161.53 1618.19C2166.51 1621.51 2170.39 1626.23 2172.67 1631.76C2174.96 1637.29 2175.56 1643.37 2174.38 1649.23C2173.21 1655.1 2170.32 1660.49 2166.08 1664.71L1874.62 1956.17C1869 1961.78 1862.33 1966.23 1854.99 1969.26C1847.66 1972.3 1839.79 1973.86 1831.85 1973.85H356.315C350.374 1973.82 344.576 1972.03 339.643 1968.72C334.711 1965.41 330.864 1960.72 328.581 1955.23C326.298 1949.75 325.682 1943.71 326.809 1937.88C327.935 1932.05 330.755 1926.67 334.916 1922.43L626.421 1630.9Z" fill="url(#paint0_linear_1017_426)"/>
<path d="M626.421 542.65C637.873 531.484 653.189 525.163 669.182 525H2144.72C2150.7 524.991 2156.55 526.759 2161.53 530.08C2166.51 533.401 2170.39 538.124 2172.67 543.652C2174.96 549.18 2175.56 555.262 2174.38 561.129C2173.21 566.995 2170.32 572.381 2166.08 576.603L1874.62 868.063C1869 873.674 1862.33 878.125 1854.99 881.159C1847.66 884.194 1839.79 885.754 1831.85 885.749H356.315C350.374 885.712 344.576 883.926 339.643 880.615C334.711 877.303 330.864 872.612 328.581 867.127C326.298 861.642 325.682 855.606 326.809 849.773C327.935 843.94 330.755 838.568 334.916 834.328L626.421 542.65Z" fill="url(#paint1_linear_1017_426)"/>
<path d="M1874.62 1083.32C1869 1077.71 1862.33 1073.26 1854.99 1070.22C1847.66 1067.19 1839.79 1065.63 1831.85 1065.63H356.315C350.337 1065.63 344.494 1067.41 339.523 1070.73C334.552 1074.05 330.677 1078.77 328.387 1084.29C326.097 1089.81 325.495 1095.89 326.657 1101.75C327.819 1107.62 330.693 1113 334.916 1117.24L626.421 1408.69C632.037 1414.31 638.704 1418.76 646.041 1421.79C653.379 1424.83 661.242 1426.39 669.182 1426.38H2144.72C2150.7 1426.39 2156.55 1424.62 2161.53 1421.3C2166.51 1417.98 2170.39 1413.26 2172.67 1407.73C2174.96 1402.2 2175.56 1396.12 2174.38 1390.25C2173.21 1384.39 2170.32 1379 2166.08 1374.78L1874.62 1083.32Z" fill="url(#paint2_linear_1017_426)"/>
</g>
</g>
<defs>
<linearGradient id="paint0_linear_1017_426" x1="2003.77" y1="350.903" x2="982.609" y2="2306.83" gradientUnits="userSpaceOnUse">
<stop stop-color="#00FFA3"/>
<stop offset="1" stop-color="#DC1FFF"/>
</linearGradient>
<linearGradient id="paint1_linear_1017_426" x1="1557.27" y1="117.779" x2="536.144" y2="2073.74" gradientUnits="userSpaceOnUse">
<stop stop-color="#00FFA3"/>
<stop offset="1" stop-color="#DC1FFF"/>
</linearGradient>
<linearGradient id="paint2_linear_1017_426" x1="1779.08" y1="233.577" x2="757.958" y2="2189.54" gradientUnits="userSpaceOnUse">
<stop stop-color="#00FFA3"/>
<stop offset="1" stop-color="#DC1FFF"/>
</linearGradient>
<clipPath id="clip0_1017_426">
<rect width="2500" height="2500" fill="white"/>
</clipPath>
<clipPath id="clip1_1017_426">
<rect width="1849" height="1449" fill="white" transform="translate(326 525)"/>
</clipPath>
</defs>
</svg>
