<svg width="80" height="80" viewBox="0 0 80 80" fill="none" xmlns="http://www.w3.org/2000/svg">
<g clip-path="url(#clip0_1175_415)">
<path fill-rule="evenodd" clip-rule="evenodd" d="M0 40C0 50.6087 4.21427 60.7828 11.7157 68.2843C19.2172 75.7857 29.3913 80 40 80C50.6087 80 60.7828 75.7857 68.2843 68.2843C75.7857 60.7828 80 50.6087 80 40C80 29.3913 75.7857 19.2172 68.2843 11.7157C60.7828 4.21427 50.6087 0 40 0C29.3913 0 19.2172 4.21427 11.7157 11.7157C4.21427 19.2172 0 29.3913 0 40V40ZM73.1429 40C73.1429 48.79 69.651 57.22 63.4355 63.4355C57.22 69.651 48.79 73.1429 40 73.1429C31.21 73.1429 22.78 69.651 16.5645 63.4355C10.349 57.22 6.85714 48.79 6.85714 40C6.85714 31.21 10.349 22.78 16.5645 16.5645C22.78 10.349 31.21 6.85714 40 6.85714C48.79 6.85714 57.22 10.349 63.4355 16.5645C69.651 22.78 73.1429 31.21 73.1429 40V40Z" fill="#666CFF"/>
<path fill-rule="evenodd" clip-rule="evenodd" d="M22.8572 40.0001C22.8572 60.6721 29.6732 77.7144 40 77.7144C50.3269 77.7144 57.1429 60.6721 57.1429 40.0001C57.1429 19.3281 50.3269 2.28583 40 2.28583C29.6732 2.28583 22.8572 19.3281 22.8572 40.0001ZM50.2857 40.0001C50.2857 57.1978 44.8229 70.8573 40 70.8573C35.1772 70.8573 29.7143 57.1978 29.7143 40.0001C29.7143 22.8024 35.1772 9.14297 40 9.14297C44.8229 9.14297 50.2857 22.8024 50.2857 40.0001Z" fill="#666CFF"/>
<path d="M10.7534 19.2777L15.3523 14.1943C15.8094 14.6057 16.3077 15.0171 16.838 15.4148C22.6483 19.7668 31.9237 22.4548 42.0494 22.4548C50.694 22.4548 58.7442 20.5028 64.5911 17.1611C65.9991 16.3566 67.2517 15.4834 68.3351 14.5554L72.7877 19.7714C71.3001 21.0332 69.696 22.1506 67.9968 23.1086C61.0665 27.0766 51.8414 29.3074 42.0494 29.3074C30.5203 29.3074 19.8094 26.208 12.7237 20.9006C12.0423 20.3902 11.3849 19.8486 10.7534 19.2777V19.2777ZM10.7534 60.7954L15.3523 65.8788C15.8094 65.4628 16.3077 65.056 16.838 64.6583C22.6483 60.3063 31.9237 57.6183 42.0494 57.6183C50.694 57.6183 58.7442 59.5703 64.5911 62.912C65.9991 63.7166 67.2517 64.5897 68.3351 65.5177L72.7877 60.3017C71.2983 59.0424 69.6943 57.9251 67.9968 56.9646C61.0665 52.9966 51.8414 50.7657 42.0494 50.7657C30.5203 50.7657 19.8094 53.8651 12.7237 59.1726C12.0423 59.683 11.3849 60.2245 10.7534 60.7954V60.7954ZM2.28711 43.4286V36.5714H77.7157V43.4286H2.28711Z" fill="#666CFF"/>
</g>
<defs>
<clipPath id="clip0_1175_415">
<rect width="80" height="80" fill="white"/>
</clipPath>
</defs>
</svg>
